<svg width="20" height="19" viewBox="0 0 20 19" fill="none" xmlns="http://www.w3.org/2000/svg">
<g clip-path="url(#clip0_1_343)">
<g clip-path="url(#clip1_1_343)">
<path fill-rule="evenodd" clip-rule="evenodd" d="M19.0396 16.3196C18.9573 15.9241 18.5699 15.6701 18.1742 15.7525C17.7787 15.8348 17.5248 16.2223 17.6071 16.6178C17.6546 16.8457 17.5981 17.0792 17.4522 17.2587C17.3677 17.3626 17.1793 17.5369 16.8669 17.5369H2.57815C2.26583 17.5369 2.0774 17.3626 1.9929 17.2587C1.84698 17.0793 1.7905 16.8457 1.83795 16.6178C2.59721 12.971 5.8139 10.307 9.5286 10.2171C9.59295 10.2196 9.65758 10.2209 9.72255 10.2209C9.78774 10.2209 9.85263 10.2196 9.91723 10.2171C12.5339 10.2799 14.9524 11.6052 16.4171 13.7895C16.6421 14.1251 17.0965 14.2148 17.4322 13.9898C17.7678 13.7647 17.8574 13.3103 17.6324 12.9747C16.4319 11.1843 14.6888 9.8824 12.7012 9.22823C13.9124 8.31998 14.6975 6.8729 14.6975 5.24591C14.6975 2.50275 12.4657 0.270992 9.72255 0.270992C6.97935 0.270992 4.74763 2.50276 4.74763 5.24591C4.74763 6.87388 5.53367 8.32173 6.74612 9.22991C5.63525 9.59564 4.59289 10.1647 3.68058 10.9151C2.00769 12.2912 0.844541 14.2105 0.405471 16.3196C0.267851 16.9805 0.432721 17.6593 0.857711 18.1819C1.28062 18.7019 1.90771 19.0001 2.57816 19.0001H16.8669C17.5374 19.0001 18.1645 18.7019 18.5874 18.1819C19.0124 17.6593 19.1772 16.9805 19.0396 16.3196L19.0396 16.3196ZM6.21083 5.24592C6.21083 3.30954 7.78616 1.73421 9.72254 1.73421C11.6589 1.73421 13.2343 3.30954 13.2343 5.24592C13.2343 7.12267 11.7544 8.66029 9.90028 8.75317C9.84113 8.75207 9.78187 8.75152 9.72254 8.75152C9.6635 8.75152 9.60446 8.75211 9.54549 8.7532C7.69105 8.66069 6.21083 7.12292 6.21083 5.24591V5.24592Z" fill="#0A0C0B"/>
</g>
</g>
<defs>
<clipPath id="clip0_1_343">
<rect width="18.7291" height="18.7291" fill="white" transform="translate(0.358002 0.270992)"/>
</clipPath>
<clipPath id="clip1_1_343">
<rect width="18.7291" height="18.7291" fill="white" transform="translate(0.358002 0.270992)"/>
</clipPath>
</defs>
</svg>
