<?xml version="1.0" encoding="UTF-8"?>
<svg version="1.1" xmlns="http://www.w3.org/2000/svg" width="644" height="559">
<path d="M0 0 C30.74101382 -0.81401438 65.45395834 6.42305629 88.7578125 27.55859375 C106.01019006 43.9667663 113.6549541 64.41148445 114.4142704 88.04557991 C114.45440214 91.45787619 114.4636557 94.86896082 114.4621582 98.28149414 C114.46749189 100.26541091 114.47283156 102.24932768 114.47839487 104.23324382 C114.48356576 106.35051956 114.48649702 108.46778917 114.48897743 110.58506966 C114.49493867 115.0218753 114.51152799 119.45860287 114.53031921 123.89537048 C114.53665543 125.42113204 114.54298106 126.94689365 114.54929638 128.4726553 C114.55246219 129.23643171 114.555628 130.00020813 114.55888975 130.78712928 C114.60077337 141.10148063 114.63390809 151.41579383 114.64624023 161.73022461 C114.65466776 168.7076684 114.67732744 175.68491619 114.7155959 182.6622619 C114.73519473 186.3426036 114.7478157 190.02265347 114.74276161 193.70305061 C114.71098051 222.23235209 119.3956057 239.39514637 136.20043945 262.50805664 C138.75456402 266.18695374 139.00861102 269.76186979 138.3203125 274.12109375 C135.22521646 279.07324741 130.81856551 282.2376403 126.24609375 285.80078125 C122.9505868 288.41430746 119.75633533 291.12613775 116.5703125 293.87109375 C115.98241943 294.37600342 115.39452637 294.88091309 114.78881836 295.40112305 C111.71154697 298.04788454 108.64691903 300.70828766 105.59375 303.3828125 C90.32725896 316.7133722 90.32725896 316.7133722 83.6328125 317.62109375 C77.67062434 316.72114082 73.8060324 312.99819556 69.5078125 308.99609375 C68.98010254 308.5060083 68.45239258 308.01592285 67.90869141 307.51098633 C59.10989217 299.24516288 52.17948819 290.00224234 45.3203125 280.12109375 C43.99 281.26578125 43.99 281.26578125 42.6328125 282.43359375 C41.98957031 282.98144531 41.34632813 283.52929688 40.68359375 284.09375 C38.94079985 285.58880791 37.21088981 287.09891595 35.48828125 288.6171875 C8.09757267 312.56893645 -22.55340466 321.00805526 -58.6796875 319.12109375 C-79.0301362 317.42422014 -97.10017352 309.43683363 -111.6796875 295.12109375 C-112.3809375 294.44433594 -113.0821875 293.76757812 -113.8046875 293.0703125 C-130.48158217 275.7745487 -134.74141332 251.26827752 -134.6796875 228.12109375 C-133.91944048 204.55343599 -125.76468124 182.53925814 -109.6796875 165.12109375 C-109.05707031 164.41855469 -108.43445313 163.71601563 -107.79296875 162.9921875 C-98.06006978 152.56553892 -85.49715412 145.96154022 -72.6796875 140.12109375 C-71.18115234 139.42886719 -71.18115234 139.42886719 -69.65234375 138.72265625 C-37.79233454 125.29441076 -0.69297703 124.21841695 33.3203125 121.12109375 C33.250393 117.21023704 33.16195953 113.30023628 33.05786133 109.39013672 C33.0090684 107.4217585 32.97407812 105.45305341 32.93945312 103.484375 C32.61209612 91.75904223 31.54563107 80.13318193 23.3203125 71.12109375 C13.85963304 63.13207554 2.57340249 60.14229662 -9.6796875 61.12109375 C-21.20419546 62.74775875 -33.09654335 66.11228002 -41.16015625 75.01953125 C-46.12500317 81.88608046 -49.14572703 89.83055914 -51.72265625 97.84375 C-52.75958087 100.31120737 -53.63489161 101.42214368 -55.6796875 103.12109375 C-62.12514097 104.98998957 -69.18818965 103.93689822 -75.7421875 103.23046875 C-76.77351807 103.1251886 -77.80484863 103.01990845 -78.86743164 102.91143799 C-81.03613837 102.68738753 -83.20435327 102.45852921 -85.37207031 102.22509766 C-88.66857387 101.87228321 -91.96673801 101.54062966 -95.265625 101.2109375 C-97.38294577 100.98955211 -99.50013836 100.76693671 -101.6171875 100.54296875 C-102.59244385 100.44594666 -103.5677002 100.34892456 -104.57250977 100.2489624 C-111.14272997 99.52154314 -118.40610221 98.70028216 -123.7421875 94.49609375 C-127.46596982 85.06251186 -122.51931681 73.83435626 -118.78662109 65.00976562 C-106.83507394 38.38447804 -86.55660071 20.63807251 -59.55712891 10.30908203 C-40.32587063 3.24183986 -20.33769559 0.91905038 0 0 Z M-39.6796875 189.12109375 C-49.15747717 200.34425796 -51.26416052 214.2275115 -50.49609375 228.54296875 C-49.17515282 239.92757307 -44.90161889 249.28889471 -35.91796875 256.56640625 C-28.27238661 261.87695022 -19.79815618 262.91550579 -10.6796875 262.12109375 C2.05536153 259.69463416 12.91146087 252.82276832 20.3203125 242.12109375 C29.41010698 227.52233292 33.53387641 212.49405871 33.41796875 195.24609375 C33.4165538 194.43615967 33.41513885 193.62622559 33.41368103 192.79174805 C33.40813633 190.23482381 33.39559457 187.67799099 33.3828125 185.12109375 C33.37779034 183.37500128 33.37322869 181.62890741 33.36914062 179.8828125 C33.3581851 175.62887166 33.34095944 171.37499814 33.3203125 167.12109375 C6.8083117 166.46306698 -20.31863003 169.03440891 -39.6796875 189.12109375 Z " fill="#252122" transform="translate(317.6796875,63.87890625)"/>
<path d="M0 0 C3.8168932 -0.51579638 6.54207311 0.41923342 10 2 C10 2.66 10 3.32 10 4 C10.598125 4.144375 11.19625 4.28875 11.8125 4.4375 C13.56150404 4.8872439 15.28677023 5.42892341 17 6 C17 6.66 17 7.32 17 8 C18.32 8 19.64 8 21 8 C21 8.66 21 9.32 21 10 C22.32 10 23.64 10 25 10 C25 10.66 25 11.32 25 12 C26.32 12 27.64 12 29 12 C29 12.66 29 13.32 29 14 C30.32 14 31.64 14 33 14 C33 14.66 33 15.32 33 16 C34.32 16 35.64 16 37 16 C37 16.66 37 17.32 37 18 C37.763125 18.144375 38.52625 18.28875 39.3125 18.4375 C42 19 42 19 45 20 C45 20.66 45 21.32 45 22 C45.639375 22.103125 46.27875 22.20625 46.9375 22.3125 C51.06477326 23.23903073 55.00642949 24.61660629 59 26 C59 26.66 59 27.32 59 28 C60.65 28 62.3 28 64 28 C64 28.66 64 29.32 64 30 C65.66666667 30.33333333 67.33333333 30.66666667 69 31 C70.66666667 31.33333333 72.33333333 31.66666667 74 32 C74 32.66 74 33.32 74 34 C75.65 34 77.3 34 79 34 C79 34.66 79 35.32 79 36 C79.680625 35.95875 80.36125 35.9175 81.0625 35.875 C84.59924168 36.02549965 87.63323033 36.94375853 91 38 C91 38.66 91 39.32 91 40 C91.68449219 40.13277344 92.36898437 40.26554687 93.07421875 40.40234375 C96.33412954 41.06825343 99.5716107 41.80956612 102.8125 42.5625 C103.97394531 42.83191406 105.13539063 43.10132813 106.33203125 43.37890625 C107.21246094 43.58386719 108.09289062 43.78882813 109 44 C109 44.66 109 45.32 109 46 C109.969375 45.979375 110.93875 45.95875 111.9375 45.9375 C115 46 115 46 116 47 C118.32817964 47.36760731 120.6618385 47.70241581 123 48 C123 48.66 123 49.32 123 50 C124.7015625 49.9690625 124.7015625 49.9690625 126.4375 49.9375 C130 50 130 50 131 51 C132.34747084 51.23075082 133.70377565 51.41153063 135.0625 51.5625 C136.361875 51.706875 137.66125 51.85125 139 52 C139 52.66 139 53.32 139 54 C141.64 54 144.28 54 147 54 C147 54.66 147 55.32 147 56 C150.3 56 153.6 56 157 56 C157 56.66 157 57.32 157 58 C157.62648437 57.98839844 158.25296875 57.97679687 158.8984375 57.96484375 C159.71570313 57.95582031 160.53296875 57.94679688 161.375 57.9375 C162.59316406 57.92009766 162.59316406 57.92009766 163.8359375 57.90234375 C166 58 166 58 168 59 C170.85207778 59.31255647 173.70496854 59.51037482 176.56640625 59.71875 C179 60 179 60 180 61 C182.14204311 61.20983279 184.28924113 61.36823385 186.4375 61.5 C192.77972466 61.88986233 192.77972466 61.88986233 195 63 C196.36207818 63.13847408 197.7297115 63.22504333 199.09765625 63.28125 C200.29938477 63.33732422 200.29938477 63.33732422 201.52539062 63.39453125 C203.22069639 63.46500585 204.91600894 63.53531761 206.61132812 63.60546875 C212.89934885 63.89934885 212.89934885 63.89934885 214 65 C216.01506736 65.14677044 218.03499541 65.22756668 220.0546875 65.28125 C221.31023437 65.31863281 222.56578125 65.35601562 223.859375 65.39453125 C225.19790533 65.43011657 226.5364472 65.46527033 227.875 65.5 C235.84362448 65.71558403 243.75161409 65.99509207 251.68554688 66.78613281 C254.56632133 67.05233096 257.42009756 67.13300111 260.3125 67.125 C261.25738281 67.12757813 262.20226562 67.13015625 263.17578125 67.1328125 C265.99431366 67.0625224 265.99431366 67.0625224 268.70678711 66.50927734 C272.33780056 65.94776099 275.842634 65.80457181 279.515625 65.71875 C280.94531253 65.68099075 282.37500003 65.6432303 283.8046875 65.60546875 C286.03870984 65.55166662 288.27276446 65.499473 290.50683594 65.44775391 C292.67654857 65.39609408 294.84606369 65.33886627 297.015625 65.28125 C298.30758789 65.25095703 299.59955078 65.22066406 300.93066406 65.18945312 C303.91354971 65.20625053 303.91354971 65.20625053 306 64 C308.55157655 63.9283265 311.07472971 63.90691558 313.625 63.9375 C314.33140625 63.94201172 315.0378125 63.94652344 315.765625 63.95117188 C317.51045275 63.96296125 319.255237 63.98089676 321 64 C321 63.34 321 62.68 321 62 C321.98742187 61.93941406 322.97484375 61.87882812 323.9921875 61.81640625 C325.27351563 61.73261719 326.55484375 61.64882813 327.875 61.5625 C329.15117187 61.48128906 330.42734375 61.40007812 331.7421875 61.31640625 C334.88300152 61.20793973 334.88300152 61.20793973 337 60 C339.55877893 59.68879716 342.11851612 59.49035334 344.6875 59.28125 C347.02268455 59.12863953 347.02268455 59.12863953 349 58 C350.54023996 57.93049459 352.08334988 57.91547643 353.625 57.9375 C354.85089844 57.95103516 354.85089844 57.95103516 356.1015625 57.96484375 C356.72804688 57.97644531 357.35453125 57.98804688 358 58 C358 57.34 358 56.68 358 56 C360.05078125 55.77213542 362.1015625 55.54427083 364.15234375 55.31640625 C366.01140229 55.18113386 366.01140229 55.18113386 367 54 C369.0572917 53.68076508 371.11613521 53.48838648 373.1875 53.28125 C375.0167533 53.18001957 375.0167533 53.18001957 376 52 C377.19625 51.87625 378.3925 51.7525 379.625 51.625 C382.7624103 51.28385556 384.57164909 50.74927671 387.5625 49.4375 C391.3133369 47.86896821 393.97740434 47.75371863 398 48 C398 47.34 398 46.68 398 46 C398.85722656 45.81824219 399.71445312 45.63648438 400.59765625 45.44921875 C407.96727999 43.91297049 407.96727999 43.91297049 415 41.3125 C417.97489078 40.01098529 419.80167521 39.7092432 423 40 C423 39.34 423 38.68 423 38 C426.61973402 36.68373308 429.09567131 36 433 36 C433 35.34 433 34.68 433 34 C434.65 34 436.3 34 438 34 C438 33.34 438 32.68 438 32 C439.98 32 441.96 32 444 32 C444 31.34 444 30.68 444 30 C449.39460953 27.72858546 454.26157749 27.79586639 460 28 C460 28.66 460 29.32 460 30 C460.99 30 461.98 30 463 30 C464.11658501 34.68965706 463.80619523 37.53763531 462 42 C461.34 42 460.68 42 460 42 C460 42.66 460 43.32 460 44 C459.01 44 458.02 44 457 44 C457 44.66 457 45.32 457 46 C454 48 454 48 451 48 C451 48.66 451 49.32 451 50 C450.01 50 449.02 50 448 50 C448 50.66 448 51.32 448 52 C447.01 52 446.02 52 445 52 C445 52.66 445 53.32 445 54 C444.01 54 443.02 54 442 54 C442 54.66 442 55.32 442 56 C440.68 56 439.36 56 438 56 C438 56.66 438 57.32 438 58 C437.01 58 436.02 58 435 58 C435 58.66 435 59.32 435 60 C433.68 60 432.36 60 431 60 C431 60.66 431 61.32 431 62 C427.91190305 63.76462683 426.76687864 64 423 64 C423 64.66 423 65.32 423 66 C421.68 66 420.36 66 419 66 C419 66.66 419 67.32 419 68 C417.68 68 416.36 68 415 68 C415 68.66 415 69.32 415 70 C413.68 70 412.36 70 411 70 C411 70.66 411 71.32 411 72 C409.35 72 407.7 72 406 72 C406 72.66 406 73.32 406 74 C404.35 74 402.7 74 401 74 C401 74.66 401 75.32 401 76 C397.49223216 77.60355101 394.85645121 78.22036864 391 78 C391 78.66 391 79.32 391 80 C390.28972656 80.20496094 389.57945312 80.40992188 388.84765625 80.62109375 C387.92855469 80.89050781 387.00945312 81.15992188 386.0625 81.4375 C385.14597656 81.70433594 384.22945313 81.97117187 383.28515625 82.24609375 C381.0597507 82.79026051 381.0597507 82.79026051 380 84 C378.00041636 84.04080783 375.99954746 84.04254356 374 84 C374 84.66 374 85.32 374 86 C372.02 86 370.04 86 368 86 C368 86.66 368 87.32 368 88 C367.16597656 88.18175781 366.33195312 88.36351562 365.47265625 88.55078125 C357.74262355 90.275323 357.74262355 90.275323 350.1875 92.625 C346.12734924 94.06594075 342.27514459 94.54194879 338 95 C337.67 95.33 337.34 95.66 337 96 C334.32941149 96.14115161 331.67567762 96.04247107 329 96 C329 96.66 329 97.32 329 98 C328.21753906 98.06058594 327.43507813 98.12117188 326.62890625 98.18359375 C325.61699219 98.26738281 324.60507812 98.35117187 323.5625 98.4375 C322.55316406 98.51871094 321.54382813 98.59992188 320.50390625 98.68359375 C318.06359221 98.73211468 318.06359221 98.73211468 317 100 C315.35892758 100.20839015 313.71143707 100.36751725 312.0625 100.5 C308.39442535 100.75214943 308.39442535 100.75214943 305 102 C301.55902217 102.26440811 298.12451499 102.44459913 294.67773438 102.60546875 C291.03510546 102.46639287 291.03510546 102.46639287 288 104 C285.84325585 104.09956026 283.68321036 104.12799717 281.52416992 104.12939453 C280.84769913 104.13114685 280.17122833 104.13289917 279.47425842 104.13470459 C277.22630282 104.13912425 274.97842523 104.13618375 272.73046875 104.1328125 C271.17206304 104.13348574 269.61365743 104.13445594 268.05525208 104.13571167 C264.78251144 104.13718899 261.50979803 104.13503388 258.23706055 104.13037109 C254.04378929 104.12468792 249.85058222 104.12794361 245.65731335 104.13394356 C242.43597431 104.13756034 239.21465043 104.13640519 235.99331093 104.13381577 C234.44756373 104.13314886 232.90181515 104.13396669 231.35606956 104.13629532 C229.19201399 104.13883856 227.02806158 104.13495702 224.86401367 104.12939453 C223.63236984 104.12859894 222.40072601 104.12780334 221.13175964 104.12698364 C218.51768282 104.02099052 216.4882483 103.70181523 214 103 C211.24682026 102.77609683 208.50694671 102.58606338 205.75 102.4375 C205.00492188 102.39431641 204.25984375 102.35113281 203.4921875 102.30664062 C201.661651 102.20103275 199.83084824 102.10005799 198 102 C198 101.34 198 100.68 198 100 C196.60974609 100.01740234 196.60974609 100.01740234 195.19140625 100.03515625 C193.99386719 100.04417969 192.79632813 100.05320312 191.5625 100.0625 C190.36753906 100.07410156 189.17257813 100.08570313 187.94140625 100.09765625 C185 100 185 100 184 99 C182.50503158 98.79300437 181.0033408 98.63320741 179.5 98.5 C175.11111111 98.11111111 175.11111111 98.11111111 174 97 C172.67218122 96.79395915 171.33704105 96.6337041 170 96.5 C166.11111111 96.11111111 166.11111111 96.11111111 165 95 C163.2365625 94.814375 163.2365625 94.814375 161.4375 94.625 C157.81800152 94.21644991 154.81265967 93.21103396 151.4296875 91.83203125 C146.10922866 90.01007348 140.50833512 89.09083603 135 88 C135 87.34 135 86.68 135 86 C133.02 86 131.04 86 129 86 C129 85.34 129 84.68 129 84 C127.35 84 125.7 84 124 84 C124 83.34 124 82.68 124 82 C121.69 82 119.38 82 117 82 C117 81.34 117 80.68 117 80 C114.03 79.34 111.06 78.68 108 78 C108 77.34 108 76.68 108 76 C107.278125 76.04125 106.55625 76.0825 105.8125 76.125 C102.79270631 75.99078695 100.73064271 75.24829381 98 74 C98 73.34 98 72.68 98 72 C97.2575 71.855625 96.515 71.71125 95.75 71.5625 C93.47972261 71.09812508 91.24240521 70.58136431 89 70 C89 69.34 89 68.68 89 68 C88.4225 67.855625 87.845 67.71125 87.25 67.5625 C85.16666667 67.04166667 83.08333333 66.52083333 81 66 C81 65.34 81 64.68 81 64 C79.68 64 78.36 64 77 64 C77 63.34 77 62.68 77 62 C75.68 62 74.36 62 73 62 C73 61.34 73 60.68 73 60 C72.01 60 71.02 60 70 60 C70 59.34 70 58.68 70 58 C68.68 58 67.36 58 66 58 C66 57.34 66 56.68 66 56 C65.01 56 64.02 56 63 56 C63 55.34 63 54.68 63 54 C61.68 54 60.36 54 59 54 C59 53.34 59 52.68 59 52 C58.01 52 57.02 52 56 52 C56 51.34 56 50.68 56 50 C54.68 50 53.36 50 52 50 C52 49.34 52 48.68 52 48 C51.01 48 50.02 48 49 48 C49 47.34 49 46.68 49 46 C48.01 46 47.02 46 46 46 C46 45.34 46 44.68 46 44 C45.01 44 44.02 44 43 44 C43 43.34 43 42.68 43 42 C41.68 42 40.36 42 39 42 C39 41.34 39 40.68 39 40 C38.34 40 37.68 40 37 40 C37 39.34 37 38.68 37 38 C36.01 38 35.02 38 34 38 C34 37.34 34 36.68 34 36 C33.01 36 32.02 36 31 36 C31 35.34 31 34.68 31 34 C29.35 33.34 27.7 32.68 26 32 C26 31.34 26 30.68 26 30 C25.01 30 24.02 30 23 30 C23 29.34 23 28.68 23 28 C22.34 28 21.68 28 21 28 C21 27.34 21 26.68 21 26 C20.01 26 19.02 26 18 26 C18 25.34 18 24.68 18 24 C17.01 24 16.02 24 15 24 C15 23.34 15 22.68 15 22 C14.1028125 21.566875 14.1028125 21.566875 13.1875 21.125 C11 20 11 20 8 18 C8 17.34 8 16.68 8 16 C7.443125 15.773125 6.88625 15.54625 6.3125 15.3125 C2.15669654 12.95380074 -0.54804309 10.50652303 -1.9375 5.875 C-2 3 -2 3 0 0 Z " fill="#F7A51E" transform="translate(58,380)"/>
<path d="M0 0 C1.36560059 0.00303635 1.36560059 0.00303635 2.75878906 0.00613403 C3.68723633 0.00517731 4.61568359 0.00422058 5.57226562 0.00323486 C7.53938871 0.00255298 9.50651403 0.00440781 11.47363281 0.00857544 C14.49581932 0.01392358 17.51785721 0.00863071 20.54003906 0.00222778 C22.44628939 0.00288856 24.35253963 0.00416972 26.25878906 0.00613403 C27.16918945 0.0041098 28.07958984 0.00208557 29.01757812 0 C35.39383938 0.02399685 35.39383938 0.02399685 36.50878906 1.13894653 C38.8369687 1.50655384 41.17062756 1.84136234 43.50878906 2.13894653 C43.50878906 2.79894653 43.50878906 3.45894653 43.50878906 4.13894653 C45.15878906 4.13894653 46.80878906 4.13894653 48.50878906 4.13894653 C51.11721393 8.74433357 51.07234683 13.13473822 51.32128906 18.32644653 C51.41700195 19.68866333 51.41700195 19.68866333 51.51464844 21.07839966 C51.7966887 26.62783969 51.27727516 30.98856133 49.25708008 36.17800903 C48.35460875 38.4070967 48.35460875 38.4070967 47.63378906 41.95144653 C46.28963112 47.59916899 43.80748755 52.82866204 41.50878906 58.13894653 C41.20457031 58.89433716 40.90035156 59.64972778 40.58691406 60.42800903 C38.73204937 65.02731638 38.73204937 65.02731638 36.50878906 66.13894653 C35.79171924 68.12143369 35.12588493 70.12310003 34.50878906 72.13894653 C34.17878906 72.79894653 33.84878906 73.45894653 33.50878906 74.13894653 C32.84878906 74.13894653 32.18878906 74.13894653 31.50878906 74.13894653 C31.01378906 76.11894653 31.01378906 76.11894653 30.50878906 78.13894653 C29.84878906 78.13894653 29.18878906 78.13894653 28.50878906 78.13894653 C28.24066406 78.71644653 27.97253906 79.29394653 27.69628906 79.88894653 C26.47949717 82.19444696 25.20545027 84.15950846 23.50878906 86.13894653 C22.84878906 86.13894653 22.18878906 86.13894653 21.50878906 86.13894653 C21.24066406 86.75769653 20.97253906 87.37644653 20.69628906 88.01394653 C19.50878906 90.13894653 19.50878906 90.13894653 16.50878906 92.13894653 C14.46582031 92.33425903 14.46582031 92.33425903 12.32128906 92.26394653 C11.06316406 92.22269653 9.80503906 92.18144653 8.50878906 92.13894653 C8.75334072 86.02515497 10.57263013 81.39522108 13.06933594 75.83328247 C16.18542533 68.79062438 18.41104726 61.53984983 20.50878906 54.13894653 C20.70778809 53.44414185 20.90678711 52.74933716 21.11181641 52.03347778 C23.7340067 42.73876885 26.16006247 33.70939688 23.50878906 24.13894653 C22.79851562 24.0061731 22.08824219 23.87339966 21.35644531 23.73660278 C20.43734375 23.56000122 19.51824219 23.38339966 18.57128906 23.20144653 C17.65476562 23.0274231 16.73824219 22.85339966 15.79394531 22.67410278 C13.50878906 22.13894653 13.50878906 22.13894653 12.50878906 21.13894653 C10.67893284 21.03932416 8.84526028 21.00814201 7.01269531 21.00613403 C5.33916992 21.00420044 5.33916992 21.00420044 3.63183594 21.00222778 C2.45685547 21.00609497 1.281875 21.00996216 0.07128906 21.01394653 C-1.09982422 21.01007935 -2.2709375 21.00621216 -3.47753906 21.00222778 C-5.15299805 21.00416138 -5.15299805 21.00416138 -6.86230469 21.00613403 C-8.40809204 21.00782593 -8.40809204 21.00782593 -9.98510742 21.009552 C-12.48930769 20.97112021 -12.48930769 20.97112021 -14.49121094 22.13894653 C-15.99020908 22.27899259 -17.49452782 22.36450739 -18.99902344 22.42019653 C-19.90394531 22.45757935 -20.80886719 22.49496216 -21.74121094 22.53347778 C-22.68996094 22.56828247 -23.63871094 22.60308716 -24.61621094 22.63894653 C-32.35686895 22.92020733 -32.35686895 22.92020733 -40.04589844 23.79519653 C-41.18285156 23.90863403 -42.31980469 24.02207153 -43.49121094 24.13894653 C-45.49121094 22.13894653 -45.49121094 22.13894653 -45.61621094 19.01394653 C-45.57496094 18.06519653 -45.53371094 17.11644653 -45.49121094 16.13894653 C-44.83121094 16.13894653 -44.17121094 16.13894653 -43.49121094 16.13894653 C-43.49121094 15.47894653 -43.49121094 14.81894653 -43.49121094 14.13894653 C-42.50121094 14.13894653 -41.51121094 14.13894653 -40.49121094 14.13894653 C-40.49121094 13.47894653 -40.49121094 12.81894653 -40.49121094 12.13894653 C-37.84382177 10.67831803 -36.59672759 10.13894653 -33.49121094 10.13894653 C-33.49121094 9.47894653 -33.49121094 8.81894653 -33.49121094 8.13894653 C-29.98344309 6.53539552 -27.34766215 5.91857789 -23.49121094 6.13894653 C-23.49121094 5.47894653 -23.49121094 4.81894653 -23.49121094 4.13894653 C-22.35683594 3.99457153 -21.22246094 3.85019653 -20.05371094 3.70144653 C-16.68343893 3.52723176 -16.68343893 3.52723176 -15.49121094 2.13894653 C-13.43391924 1.81971161 -11.37507573 1.62733301 -9.30371094 1.42019653 C-0.15509486 0.00058369 -0.15509486 0.00058369 0 0 Z " fill="#F6A722" transform="translate(515.4912109375,371.8610534667969)"/>
<path d="M0 0 C1.98 0 3.96 0 6 0 C6 0.66 6 1.32 6 2 C4.68 2 3.36 2 2 2 C2 2.66 2 3.32 2 4 C3.98 3.34 5.96 2.68 8 2 C7.84225098 2.70358643 7.68450195 3.40717285 7.52197266 4.13208008 C6.58704288 9.26894634 6.57499929 14.47869505 6.375 19.6875 C6.3234375 20.84056641 6.271875 21.99363281 6.21875 23.18164062 C6.17492187 24.28056641 6.13109375 25.37949219 6.0859375 26.51171875 C6.0451709 27.51678467 6.0044043 28.52185059 5.96240234 29.55737305 C5.82365146 32.0084654 5.82365146 32.0084654 7 34 C7.99 34 8.98 34 10 34 C10 34.66 10 35.32 10 36 C10.66 36 11.32 36 12 36 C12 37.32 12 38.64 12 40 C11.34 40 10.68 40 10 40 C9.67 41.65 9.34 43.3 9 45 C7.515 45.495 7.515 45.495 6 46 C6.33 47.98 6.66 49.96 7 52 C8.1446875 51.505 8.1446875 51.505 9.3125 51 C12 50 12 50 15 50 C14.34 51.98 13.68 53.96 13 56 C12.34 56 11.68 56 11 56 C10.67 57.32 10.34 58.64 10 60 C9.34 60 8.68 60 8 60 C7.731875 60.5775 7.46375 61.155 7.1875 61.75 C5.97070811 64.05550043 4.69666121 66.02056192 3 68 C2.34 68 1.68 68 1 68 C0.731875 68.61875 0.46375 69.2375 0.1875 69.875 C-1 72 -1 72 -4 74 C-6.04296875 74.1953125 -6.04296875 74.1953125 -8.1875 74.125 C-9.445625 74.08375 -10.70375 74.0425 -12 74 C-11.75544834 67.88620844 -9.93615894 63.25627454 -7.43945312 57.69433594 C-4.32336374 50.65167785 -2.0977418 43.4009033 0 36 C0.19899902 35.30519531 0.39799805 34.61039062 0.60302734 33.89453125 C3.22521764 24.59982232 5.65127341 15.57045034 3 6 C2.28972656 5.87882812 1.57945312 5.75765625 0.84765625 5.6328125 C-0.07144531 5.46523438 -0.99054687 5.29765625 -1.9375 5.125 C-2.85402344 4.96257812 -3.77054688 4.80015625 -4.71484375 4.6328125 C-5.84599609 4.31957031 -5.84599609 4.31957031 -7 4 C-7.33 3.34 -7.66 2.68 -8 2 C-5.36 2 -2.72 2 0 2 C0 1.34 0 0.68 0 0 Z " fill="#F6A825" transform="translate(536,390)"/>
<path d="M0 0 C3.8168932 -0.51579638 6.54207311 0.41923342 10 2 C10 2.66 10 3.32 10 4 C10.598125 4.144375 11.19625 4.28875 11.8125 4.4375 C13.56150404 4.8872439 15.28677023 5.42892341 17 6 C17 6.66 17 7.32 17 8 C18.32 8 19.64 8 21 8 C21 8.66 21 9.32 21 10 C22.32 10 23.64 10 25 10 C25 10.66 25 11.32 25 12 C26.32 12 27.64 12 29 12 C29 12.66 29 13.32 29 14 C30.32 14 31.64 14 33 14 C33 14.66 33 15.32 33 16 C34.32 16 35.64 16 37 16 C37 16.66 37 17.32 37 18 C33.04 18.33 29.08 18.66 25 19 C24.67 20.32 24.34 21.64 24 23 C23.01 23.33 22.02 23.66 21 24 C21 24.66 21 25.32 21 26 C20.01 26 19.02 26 18 26 C18 25.34 18 24.68 18 24 C17.01 24 16.02 24 15 24 C15 23.34 15 22.68 15 22 C14.1028125 21.566875 14.1028125 21.566875 13.1875 21.125 C11 20 11 20 8 18 C8 17.34 8 16.68 8 16 C7.443125 15.773125 6.88625 15.54625 6.3125 15.3125 C2.15669654 12.95380074 -0.54804309 10.50652303 -1.9375 5.875 C-2 3 -2 3 0 0 Z " fill="#F5AC2F" transform="translate(58,380)"/>
<path d="M0 0 C-0.804375 0.45375 -1.60875 0.9075 -2.4375 1.375 C-5.08856572 2.74725665 -5.08856572 2.74725665 -6 5 C-8.5625 5.625 -8.5625 5.625 -11 6 C-11 6.99 -11 7.98 -11 9 C-12.134375 9.28875 -13.26875 9.5775 -14.4375 9.875 C-15.613125 10.24625 -16.78875 10.6175 -18 11 C-18.33 11.66 -18.66 12.32 -19 13 C-18.34 13 -17.68 13 -17 13 C-17 12.34 -17 11.68 -17 11 C-15.68 11 -14.36 11 -13 11 C-13 11.66 -13 12.32 -13 13 C-4.75 13 3.5 13 12 13 C9.56494018 15.43505982 8.8384279 15.27645687 5.4921875 15.37890625 C4.13480469 15.43014648 4.13480469 15.43014648 2.75 15.48242188 C1.80125 15.50884766 0.8525 15.53527344 -0.125 15.5625 C-1.98187238 15.62327507 -3.83864967 15.68703492 -5.6953125 15.75390625 C-6.5915332 15.78500488 -7.48775391 15.81610352 -8.41113281 15.84814453 C-10.82906736 15.98997359 -13.16240363 16.2842585 -15.5546875 16.65234375 C-16.69164062 16.76707031 -17.82859375 16.88179688 -19 17 C-21 15 -21 15 -21.125 11.875 C-21.08375 10.92625 -21.0425 9.9775 -21 9 C-20.34 9 -19.68 9 -19 9 C-19 8.34 -19 7.68 -19 7 C-18.01 7 -17.02 7 -16 7 C-16 6.34 -16 5.68 -16 5 C-13.35261084 3.5393715 -12.10551666 3 -9 3 C-9 2.34 -9 1.68 -9 1 C-5.57367167 -0.61798838 -3.61944899 -1.34053666 0 0 Z " fill="#F2C778" transform="translate(491,379)"/>
<path d="M0 0 C8.25 0 16.5 0 25 0 C24.67 0.66 24.34 1.32 24 2 C46.11 2 68.22 2 91 2 C90.67 2.66 90.34 3.32 90 4 C80.94222056 4.02317038 71.88445132 4.04093907 62.82664871 4.05181217 C58.62074995 4.05703071 54.41487147 4.06410971 50.20898438 4.07543945 C46.15007071 4.08630486 42.09117654 4.0922846 38.03224945 4.09487724 C36.48370812 4.09672489 34.93516785 4.10033286 33.38663483 4.10573006 C31.21769402 4.11298894 29.04883381 4.11398889 26.87988281 4.11352539 C25.64522278 4.115746 24.41056274 4.11796661 23.13848877 4.12025452 C20.51756582 4.01983108 18.49341162 3.70502017 16 3 C13.24682026 2.77609683 10.50694671 2.58606338 7.75 2.4375 C7.00492187 2.39431641 6.25984375 2.35113281 5.4921875 2.30664062 C3.661651 2.20103275 1.83084824 2.10005799 0 2 C0 1.34 0 0.68 0 0 Z " fill="#F4C976" transform="translate(256,480)"/>
<path d="M0 0 C3.3 0 6.6 0 10 0 C10 0.66 10 1.32 10 2 C10.99 2 11.98 2 13 2 C14.11658501 6.68965706 13.80619523 9.53763531 12 14 C11.34 14 10.68 14 10 14 C10 14.66 10 15.32 10 16 C9.01 16 8.02 16 7 16 C7 16.66 7 17.32 7 18 C5.35 18.66 3.7 19.32 2 20 C2.33 18.68 2.66 17.36 3 16 C3.99 16 4.98 16 6 16 C6 15.34 6 14.68 6 14 C6.66 14 7.32 14 8 14 C8 13.34 8 12.68 8 12 C6.68 12 5.36 12 4 12 C4.66 9.36 5.32 6.72 6 4 C5.34 4 4.68 4 4 4 C4 3.34 4 2.68 4 2 C2.35 2 0.7 2 -1 2 C-0.67 1.34 -0.34 0.68 0 0 Z " fill="#F1B449" transform="translate(508,408)"/>
<path d="M0 0 C3.02419525 0.58803797 6.01758453 1.22678118 9 2 C9 2.66 9 3.32 9 4 C10.65 4 12.3 4 14 4 C14 4.66 14 5.32 14 6 C15.66666667 6.33333333 17.33333333 6.66666667 19 7 C20.66666667 7.33333333 22.33333333 7.66666667 24 8 C24 8.66 24 9.32 24 10 C22.02 10 20.04 10 18 10 C18 9.34 18 8.68 18 8 C17.34 8.66 16.68 9.32 16 10 C15.01 10 14.02 10 13 10 C13 10.66 13 11.32 13 12 C12.01 12 11.02 12 10 12 C10 11.34 10 10.68 10 10 C8.02 10 6.04 10 4 10 C4 9.34 4 8.68 4 8 C3.34 8 2.68 8 2 8 C2.04125 7.05125 2.0825 6.1025 2.125 5.125 C2.34973818 1.89755144 2.34973818 1.89755144 0 0 Z " fill="#F4B23C" transform="translate(108,404)"/>
<path d="M0 0 C1.98 0 3.96 0 6 0 C6 0.66 6 1.32 6 2 C4.68 2 3.36 2 2 2 C2 2.66 2 3.32 2 4 C3.98 3.34 5.96 2.68 8 2 C7.84152588 2.71115967 7.68305176 3.42231934 7.51977539 4.1550293 C7.00385198 6.97891634 6.79569313 9.65298992 6.68359375 12.51953125 C6.64169922 13.54111328 6.59980469 14.56269531 6.55664062 15.61523438 C6.49766602 17.19788086 6.49766602 17.19788086 6.4375 18.8125 C6.39431641 19.88693359 6.35113281 20.96136719 6.30664062 22.06835938 C6.20089017 24.71212082 6.09879767 27.3559711 6 30 C5.34 30 4.68 30 4 30 C4 31.32 4 32.64 4 34 C3.34 34 2.68 34 2 34 C2.91 26.46 2.91 26.46 3.5625 23.125 C4.36153544 17.41760397 4.61821519 11.57385233 3 6 C2.28972656 5.87882812 1.57945312 5.75765625 0.84765625 5.6328125 C-0.07144531 5.46523438 -0.99054687 5.29765625 -1.9375 5.125 C-2.85402344 4.96257812 -3.77054688 4.80015625 -4.71484375 4.6328125 C-5.84599609 4.31957031 -5.84599609 4.31957031 -7 4 C-7.33 3.34 -7.66 2.68 -8 2 C-5.36 2 -2.72 2 0 2 C0 1.34 0 0.68 0 0 Z " fill="#F0BD56" transform="translate(536,390)"/>
<path d="M0 0 C1.65 0 3.3 0 5 0 C5 0.66 5 1.32 5 2 C3.68 2 2.36 2 1 2 C1 2.66 1 3.32 1 4 C1.66 4 2.32 4 3 4 C3 4.66 3 5.32 3 6 C-0.09478879 7.03159626 -1.52631393 6.97482862 -4.6875 6.5625 C-5.49574219 6.46066406 -6.30398438 6.35882813 -7.13671875 6.25390625 C-7.75160156 6.17011719 -8.36648438 6.08632813 -9 6 C-8.67 6.99 -8.34 7.98 -8 9 C-9.98 9.99 -11.96 10.98 -14 12 C-14 11.34 -14 10.68 -14 10 C-16.31 10 -18.62 10 -21 10 C-21 9.34 -21 8.68 -21 8 C-17.38026598 6.68373308 -14.90432869 6 -11 6 C-11 5.34 -11 4.68 -11 4 C-9.35 4 -7.7 4 -6 4 C-6 3.34 -6 2.68 -6 2 C-4.02 2 -2.04 2 0 2 C0 1.34 0 0.68 0 0 Z " fill="#F3C46C" transform="translate(502,410)"/>
<path d="M0 0 C2.31243792 -0.02685412 4.6249627 -0.04632841 6.9375 -0.0625 C8.22527344 -0.07410156 9.51304687 -0.08570313 10.83984375 -0.09765625 C14 0 14 0 15 1 C17.05028634 1.14665151 19.10533382 1.22753289 21.16015625 1.28125 C23.0637793 1.33732422 23.0637793 1.33732422 25.00585938 1.39453125 C26.3580607 1.4301542 27.7102745 1.46530677 29.0625 1.5 C44.94439386 1.921436 44.94439386 1.921436 52 3 C52 3.33 52 3.66 52 4 C46.84050889 4.04960315 41.681158 4.08581559 36.52148438 4.10986328 C34.76787903 4.11989313 33.0142903 4.13352029 31.26074219 4.15087891 C28.73368215 4.1752603 26.2068441 4.1865134 23.6796875 4.1953125 C22.51214432 4.21079636 22.51214432 4.21079636 21.3210144 4.22659302 C16.79814919 4.22751591 13.27409769 3.65541545 9 2 C7.38280371 1.73788562 5.75657211 1.52332474 4.125 1.375 C3.34382813 1.30023438 2.56265625 1.22546875 1.7578125 1.1484375 C1.17773438 1.09945313 0.59765625 1.05046875 0 1 C0 0.67 0 0.34 0 0 Z " fill="#F2DA99" transform="translate(257,444)"/>
<path d="M0 0 C5.75 -0.125 5.75 -0.125 8 1 C10.85207778 1.31255647 13.70496854 1.51037482 16.56640625 1.71875 C19 2 19 2 20 3 C23.32947093 3.28538322 26.65897628 3.44892633 29.99609375 3.62109375 C33 4 33 4 35 6 C29.06 6 23.12 6 17 6 C17 5.67 17 5.34 17 5 C11.72 4.67 6.44 4.34 1 4 C0.67 2.68 0.34 1.36 0 0 Z " fill="#EFC775" transform="translate(218,438)"/>
<path d="M0 0 C0.66 0 1.32 0 2 0 C2 1.32 2 2.64 2 4 C2.66 4 3.32 4 4 4 C4 5.98 4 7.96 4 10 C2.68 10 1.36 10 0 10 C0 11.65 0 13.3 0 15 C-1.98 15.66 -3.96 16.32 -6 17 C-6.1875 13.625 -6.1875 13.625 -6 10 C-5.01 9.34 -4.02 8.68 -3 8 C-2.27617533 5.94074861 -2.27617533 5.94074861 -2 4 C-1.34 4 -0.68 4 0 4 C0 2.68 0 1.36 0 0 Z " fill="#F9A418" transform="translate(548,426)"/>
<path d="M0 0 C-3.40858586 3.40858586 -8.32201465 3.93008394 -13 4.125 C-13.66 4.08375 -14.32 4.0425 -15 4 C-15 4.66 -15 5.32 -15 6 C-21.93 6 -28.86 6 -36 6 C-36 5.34 -36 4.68 -36 4 C-35.01257813 3.93941406 -34.02515625 3.87882812 -33.0078125 3.81640625 C-31.72648437 3.73261719 -30.44515625 3.64882813 -29.125 3.5625 C-27.84882813 3.48128906 -26.57265625 3.40007812 -25.2578125 3.31640625 C-22.11699848 3.20793973 -22.11699848 3.20793973 -20 2 C-17.44122107 1.68879716 -14.88148388 1.49035334 -12.3125 1.28125 C-1.56962025 -0.02531646 -1.56962025 -0.02531646 0 0 Z " fill="#F0C877" transform="translate(415,438)"/>
<path d="M0 0 C3.8168932 -0.51579638 6.54207311 0.41923342 10 2 C10 2.66 10 3.32 10 4 C11.32 4.33 12.64 4.66 14 5 C14 5.33 14 5.66 14 6 C10.04 6 6.08 6 2 6 C1.67 7.32 1.34 8.64 1 10 C0.34 9.67 -0.32 9.34 -1 9 C-1.75 6.125 -1.75 6.125 -2 3 C-1.34 2.01 -0.68 1.02 0 0 Z " fill="#F0B74D" transform="translate(58,380)"/>
<path d="M0 0 C4.29 0 8.58 0 13 0 C12.34 1.32 11.68 2.64 11 4 C10.34 4 9.68 4 9 4 C9 4.66 9 5.32 9 6 C10.32 6 11.64 6 13 6 C13 7.32 13 8.64 13 10 C13.33 10.66 13.66 11.32 14 12 C11.50638429 10.79618552 9.31856917 9.54571278 7 8 C7 7.34 7 6.68 7 6 C6.401875 5.71125 5.80375 5.4225 5.1875 5.125 C3 4 3 4 0 2 C0 1.34 0 0.68 0 0 Z " fill="#F4A324" transform="translate(59,390)"/>
<path d="M0 0 C3.3 0 6.6 0 10 0 C10 0.33 10 0.66 10 1 C12.97 1.33 15.94 1.66 19 2 C19 2.33 19 2.66 19 3 C21.31 3.33 23.62 3.66 26 4 C26 4.66 26 5.32 26 6 C28.31 6.33 30.62 6.66 33 7 C33 7.33 33 7.66 33 8 C30.66705225 8.04241723 28.33297433 8.04092937 26 8 C25.67 7.67 25.34 7.34 25 7 C23.67218122 6.79395915 22.33704105 6.6337041 21 6.5 C17.11111111 6.11111111 17.11111111 6.11111111 16 5 C14.824375 4.87625 13.64875 4.7525 12.4375 4.625 C7.92881139 4.12765822 4.18580793 2.71917112 0 1 C0 0.67 0 0.34 0 0 Z " fill="#EFC676" transform="translate(207,470)"/>
<path d="M0 0 C0.99 0.33 1.98 0.66 3 1 C4.33106622 1.34227417 5.66400079 1.67751743 7 2 C7 1.34 7 0.68 7 0 C8.32 0 9.64 0 11 0 C11 0.66 11 1.32 11 2 C10.01 2 9.02 2 8 2 C8 2.66 8 3.32 8 4 C7.01 4 6.02 4 5 4 C5 4.66 5 5.32 5 6 C4.01 6 3.02 6 2 6 C2 6.66 2 7.32 2 8 C0.68 8 -0.64 8 -2 8 C-2 8.66 -2 9.32 -2 10 C-2.99 10 -3.98 10 -5 10 C-5 10.66 -5 11.32 -5 12 C-5.99 11.67 -6.98 11.34 -8 11 C-6.25 8.5 -6.25 8.5 -4 6 C-2.68 6 -1.36 6 0 6 C-0.2784375 4.7934375 -0.2784375 4.7934375 -0.5625 3.5625 C-0.706875 2.716875 -0.85125 1.87125 -1 1 C-0.67 0.67 -0.34 0.34 0 0 Z " fill="#F2BB58" transform="translate(498,428)"/>
<path d="M0 0 C1.16080078 0.05220703 2.32160156 0.10441406 3.51757812 0.15820312 C6.36620617 0.28715337 9.21441787 0.42208589 12.0625 0.5625 C12.0625 1.2225 12.0625 1.8825 12.0625 2.5625 C1.5025 2.5625 -9.0575 2.5625 -19.9375 2.5625 C-19.9375 1.9025 -19.9375 1.2425 -19.9375 0.5625 C-13.25985335 -0.7458923 -6.76843598 -0.3347663 0 0 Z " fill="#F1A830" transform="translate(323.9375,447.4375)"/>
<path d="M0 0 C1.62418745 -0.08090971 3.24951745 -0.13914995 4.875 -0.1875 C5.77992188 -0.22230469 6.68484375 -0.25710938 7.6171875 -0.29296875 C8.79667969 -0.14794922 8.79667969 -0.14794922 10 0 C12.4294516 3.6441774 12.16179575 5.71241272 12 10 C11.01 10.33 10.02 10.66 9 11 C8.67 9.35 8.34 7.7 8 6 C7.34 6 6.68 6 6 6 C6 5.34 6 4.68 6 4 C5.34 4 4.68 4 4 4 C4 3.34 4 2.68 4 2 C2.35 2 0.7 2 -1 2 C-0.67 1.34 -0.34 0.68 0 0 Z " fill="#F4A425" transform="translate(508,408)"/>
<path d="M0 0 C3.3 0 6.6 0 10 0 C10 0.66 10 1.32 10 2 C10.99 2 11.98 2 13 2 C13 2.66 13 3.32 13 4 C13.66 4.33 14.32 4.66 15 5 C14 6 14 6 11.49609375 6.09765625 C9.98208984 6.08025391 9.98208984 6.08025391 8.4375 6.0625 C7.42558594 6.05347656 6.41367188 6.04445313 5.37109375 6.03515625 C4.58863281 6.02355469 3.80617187 6.01195312 3 6 C3 4.68 3 3.36 3 2 C2.01 2 1.02 2 0 2 C0 1.34 0 0.68 0 0 Z " fill="#F3B143" transform="translate(205,436)"/>
<path d="M0 0 C1.32 0 2.64 0 4 0 C4 0.66 4 1.32 4 2 C6.64 2 9.28 2 12 2 C11.67 2.66 11.34 3.32 11 4 C8.78515625 4.37890625 8.78515625 4.37890625 6.0625 4.5625 C2.39324879 4.76801323 2.39324879 4.76801323 -1 6 C-3.37402501 6.07116382 -5.75000677 6.08409085 -8.125 6.0625 C-9.40632813 6.05347656 -10.68765625 6.04445313 -12.0078125 6.03515625 C-13.48894531 6.01775391 -13.48894531 6.01775391 -15 6 C-11.57905758 3.71937172 -10.31812778 3.78074993 -6.3125 3.875 C-4.82169922 3.90207031 -4.82169922 3.90207031 -3.30078125 3.9296875 C-2.54152344 3.95289063 -1.78226562 3.97609375 -1 4 C-0.67 2.68 -0.34 1.36 0 0 Z " fill="#F1C776" transform="translate(364,476)"/>
<path d="M0 0 C0.91007812 0.10183594 1.82015625 0.20367187 2.7578125 0.30859375 C3.45648438 0.39238281 4.15515625 0.47617187 4.875 0.5625 C5.535 2.5425 6.195 4.5225 6.875 6.5625 C4.895 7.5525 4.895 7.5525 2.875 8.5625 C3.535 7.2425 4.195 5.9225 4.875 4.5625 C0.585 4.5625 -3.705 4.5625 -8.125 4.5625 C-7.795 3.2425 -7.465 1.9225 -7.125 0.5625 C-4.50184968 -0.74907516 -2.89466564 -0.33399988 0 0 Z " fill="#F6A520" transform="translate(67.125,385.4375)"/>
<path d="M0 0 C0.66 0 1.32 0 2 0 C2 0.66 2 1.32 2 2 C3.65 2 5.3 2 7 2 C7 2.66 7 3.32 7 4 C6.34 4 5.68 4 5 4 C4.731875 4.61875 4.46375 5.2375 4.1875 5.875 C3 8 3 8 0 10 C-2.04296875 10.1953125 -2.04296875 10.1953125 -4.1875 10.125 C-6.0746875 10.063125 -6.0746875 10.063125 -8 10 C-7.67 7.36 -7.34 4.72 -7 2 C-6.67 2 -6.34 2 -6 2 C-6 3.98 -6 5.96 -6 8 C-4.35 8 -2.7 8 -1 8 C-1 7.34 -1 6.68 -1 6 C-0.34 6 0.32 6 1 6 C0.67 4.02 0.34 2.04 0 0 Z " fill="#F3B956" transform="translate(532,454)"/>
<path d="M0 0 C3.29527735 3.29527735 2.60089732 7.5697764 2.8125 12.0625 C2.87630859 12.97966797 2.94011719 13.89683594 3.00585938 14.84179688 C3.28520877 20.3933743 2.80137413 24.77859623 0.77880859 29.97021484 C-0.47381743 33.23489596 -1.19652813 36.60069593 -2 40 C-3.03115279 36.73086376 -2.9638984 34.13958652 -2.5625 30.75 C-2.46066406 29.85796875 -2.35882812 28.9659375 -2.25390625 28.046875 C-2.17011719 27.37140625 -2.08632813 26.6959375 -2 26 C-1.34 26 -0.68 26 0 26 C0 17.42 0 8.84 0 0 Z " fill="#F4CF87" transform="translate(564,378)"/>
<path d="M0 0 C3.62528568 -0.20140476 5.86501708 0.14223235 9 2 C9 2.66 9 3.32 9 4 C10.98 4 12.96 4 15 4 C15.33 5.98 15.66 7.96 16 10 C15.34 10 14.68 10 14 10 C14 9.34 14 8.68 14 8 C12.68 8 11.36 8 10 8 C10 7.34 10 6.68 10 6 C9.01 6 8.02 6 7 6 C7 5.34 7 4.68 7 4 C5.68 4 4.36 4 3 4 C3 3.34 3 2.68 3 2 C2.01 2 1.02 2 0 2 C0 1.34 0 0.68 0 0 Z " fill="#F2C267" transform="translate(107,426)"/>
<path d="M0 0 C2.10407096 1.69636171 2.93240678 2.54981464 3.34057617 5.26831055 C3.32486572 6.13238525 3.30915527 6.99645996 3.29296875 7.88671875 C3.28330078 8.82451172 3.27363281 9.76230469 3.26367188 10.72851562 C3.23853516 11.70498047 3.21339844 12.68144531 3.1875 13.6875 C3.17396484 14.67556641 3.16042969 15.66363281 3.14648438 16.68164062 C3.11112203 19.12164231 3.06177033 21.56054719 3 24 C2.34 24 1.68 24 1 24 C1 25.32 1 26.64 1 28 C0.34 28 -0.32 28 -1 28 C-0.09 20.46 -0.09 20.46 0.5625 17.125 C1.36153544 11.41760397 1.61821519 5.57385233 0 0 Z " fill="#F2D187" transform="translate(539,396)"/>
<path d="M0 0 C2.97 0 5.94 0 9 0 C8.67 1.32 8.34 2.64 8 4 C8.99 4 9.98 4 11 4 C11.33 5.32 11.66 6.64 12 8 C11.01 8 10.02 8 9 8 C9 7.34 9 6.68 9 6 C7.68 6 6.36 6 5 6 C5 5.34 5 4.68 5 4 C4.34 4 3.68 4 3 4 C3 3.34 3 2.68 3 2 C2.01 2 1.02 2 0 2 C0 1.34 0 0.68 0 0 Z " fill="#EEB446" transform="translate(92,416)"/>
<path d="M0 0 C1.65 0 3.3 0 5 0 C5 0.66 5 1.32 5 2 C5.680625 2.12375 6.36125 2.2475 7.0625 2.375 C10.4277412 3.09100877 13.70013425 4.02945125 17 5 C17 5.33 17 5.66 17 6 C13.7 6 10.4 6 7 6 C7 5.34 7 4.68 7 4 C5.02 4.33 3.04 4.66 1 5 C0.67 3.35 0.34 1.7 0 0 Z " fill="#F3C166" transform="translate(144,418)"/>
<path d="M0 0 C2.31 0 4.62 0 7 0 C7 0.66 7 1.32 7 2 C5.02 2 3.04 2 1 2 C1 2.66 1 3.32 1 4 C-3.53701494 5.45184478 -7.18061476 6.23509196 -12 6 C-11.01 5.67 -10.02 5.34 -9 5 C-9 4.01 -9 3.02 -9 2 C-6.03 2 -3.06 2 0 2 C0 1.34 0 0.68 0 0 Z " fill="#F1C875" transform="translate(425,464)"/>
<path d="M0 0 C1.65 0 3.3 0 5 0 C5 1.32 5 2.64 5 4 C3.68 4 2.36 4 1 4 C1 4.66 1 5.32 1 6 C-0.32 6 -1.64 6 -3 6 C-3 6.66 -3 7.32 -3 8 C-4.65 8 -6.3 8 -8 8 C-8 7.34 -8 6.68 -8 6 C-7.34 6 -6.68 6 -6 6 C-6 5.34 -6 4.68 -6 4 C-4.02 4 -2.04 4 0 4 C0 2.68 0 1.36 0 0 Z " fill="#F2C879" transform="translate(472,444)"/>
<path d="M0 0 C0.99 0 1.98 0 3 0 C2.34 1.98 1.68 3.96 1 6 C0.34 6 -0.32 6 -1 6 C-1.33 7.32 -1.66 8.64 -2 10 C-2.66 10 -3.32 10 -4 10 C-4.268125 10.61875 -4.53625 11.2375 -4.8125 11.875 C-6 14 -6 14 -9 16 C-9 14.68 -9 13.36 -9 12 C-8.01 12 -7.02 12 -6 12 C-6 10.68 -6 9.36 -6 8 C-5.34 8 -4.68 8 -4 8 C-4 7.34 -4 6.68 -4 6 C-3.34 6 -2.68 6 -2 6 C-2 5.34 -2 4.68 -2 4 C-1.34 4 -0.68 4 0 4 C0 2.68 0 1.36 0 0 Z " fill="#EEC678" transform="translate(548,440)"/>
<path d="M0 0 C1.32 0 2.64 0 4 0 C4 0.66 4 1.32 4 2 C4.99 2 5.98 2 7 2 C7.33 3.32 7.66 4.64 8 6 C9.65 6 11.3 6 13 6 C13 7.32 13 8.64 13 10 C12.01 10 11.02 10 10 10 C10 9.34 10 8.68 10 8 C7.525 7.01 7.525 7.01 5 6 C5 5.34 5 4.68 5 4 C4.01 4 3.02 4 2 4 C2 3.34 2 2.68 2 2 C1.34 2 0.68 2 0 2 C0 1.34 0 0.68 0 0 Z " fill="#EEC370" transform="translate(79,406)"/>
<path d="M0 0 C4.29 0 8.58 0 13 0 C9.42530375 3.57469625 4.97105579 3.96917283 0.0625 4.125 C-0.948125 4.08375 -1.95875 4.0425 -3 4 C-3.33 3.34 -3.66 2.68 -4 2 C-2.68 2 -1.36 2 0 2 C0 1.34 0 0.68 0 0 Z " fill="#F0C16F" transform="translate(400,470)"/>
<path d="M0 0 C1.65 0 3.3 0 5 0 C5 0.66 5 1.32 5 2 C5.969375 1.979375 6.93875 1.95875 7.9375 1.9375 C11 2 11 2 12 3 C14.32817964 3.36760731 16.6618385 3.70241581 19 4 C19 4.66 19 5.32 19 6 C16.36 6 13.72 6 11 6 C11 5.34 11 4.68 11 4 C8.36 4 5.72 4 3 4 C3 3.01 3 2.02 3 1 C2.01 0.67 1.02 0.34 0 0 Z " fill="#F2CB7F" transform="translate(162,424)"/>
<path d="M0 0 C2.64 0 5.28 0 8 0 C8 1.32 8 2.64 8 4 C9.32 4 10.64 4 12 4 C12.66 5.32 13.32 6.64 14 8 C13.01 8 12.02 8 11 8 C11 7.34 11 6.68 11 6 C9.68 6 8.36 6 7 6 C7 5.34 7 4.68 7 4 C6.01 4 5.02 4 4 4 C4 3.34 4 2.68 4 2 C2.68 2 1.36 2 0 2 C0 1.34 0 0.68 0 0 Z " fill="#F0C875" transform="translate(124,436)"/>
<path d="M0 0 C4.29 0 8.58 0 13 0 C13 1.32 13 2.64 13 4 C11.33388095 4.042721 9.66617115 4.04063832 8 4 C7.67 3.67 7.34 3.34 7 3 C4.67182036 2.63239269 2.3381615 2.29758419 0 2 C0 1.34 0 0.68 0 0 Z " fill="#F0C46A" transform="translate(193,466)"/>
<path d="M0 0 C1.98 0.66 3.96 1.32 6 2 C6 2.66 6 3.32 6 4 C2.49223216 5.60355101 -0.14354879 6.22036864 -4 6 C-4 6.66 -4 7.32 -4 8 C-5.32 7.67 -6.64 7.34 -8 7 C-7.34 7 -6.68 7 -6 7 C-5.67 6.01 -5.34 5.02 -5 4 C-3.35 4 -1.7 4 0 4 C-0.33 3.01 -0.66 2.02 -1 1 C-0.67 0.67 -0.34 0.34 0 0 Z " fill="#F1C671" transform="translate(453,452)"/>
<path d="M0 0 C1.99954746 -0.04254356 4.00041636 -0.04080783 6 0 C6.33 0.33 6.66 0.66 7 1 C8.34747084 1.23075082 9.70377565 1.41153063 11.0625 1.5625 C12.361875 1.706875 13.66125 1.85125 15 2 C15 2.66 15 3.32 15 4 C13.35 4 11.7 4 10 4 C10 4.66 10 5.32 10 6 C8.68 6 7.36 6 6 6 C6 4.68 6 3.36 6 2 C3.03 1.505 3.03 1.505 0 1 C0 0.67 0 0.34 0 0 Z " fill="#F2C975" transform="translate(182,430)"/>
<path d="M0 0 C3.85645121 -0.22036864 6.49223216 0.39644899 10 2 C10 2.66 10 3.32 10 4 C11.32 4.33 12.64 4.66 14 5 C14 5.33 14 5.66 14 6 C11.36 6 8.72 6 6 6 C5.67 4.68 5.34 3.36 5 2 C3.35 2 1.7 2 0 2 C0 1.34 0 0.68 0 0 Z " fill="#F4CF86" transform="translate(58,380)"/>
<path d="M0 0 C1.25348607 2.95106435 1.01044806 3.97406463 -0.21484375 7.015625 C-1.06755859 8.61664063 -1.06755859 8.61664063 -1.9375 10.25 C-2.50339844 11.32765625 -3.06929687 12.4053125 -3.65234375 13.515625 C-4.09707031 14.33546875 -4.54179688 15.1553125 -5 16 C-5.33 16 -5.66 16 -6 16 C-6 13.36 -6 10.72 -6 8 C-5.01 8 -4.02 8 -3 8 C-2.87625 7.4225 -2.7525 6.845 -2.625 6.25 C-1.99351176 3.97664233 -1.11141809 2.0746471 0 0 Z " fill="#F3C56F" transform="translate(559,420)"/>
<path d="M0 0 C1.65 0 3.3 0 5 0 C5 0.66 5 1.32 5 2 C3.68 2 2.36 2 1 2 C1 2.66 1 3.32 1 4 C1.66 4 2.32 4 3 4 C3 4.66 3 5.32 3 6 C-0.28976808 7.09658936 -1.71303767 6.79953138 -5 6 C-4.67 5.01 -4.34 4.02 -4 3 C-1.9375 2.3125 -1.9375 2.3125 0 2 C0 1.34 0 0.68 0 0 Z " fill="#EFB34A" transform="translate(502,410)"/>
<path d="M0 0 C-0.33 1.32 -0.66 2.64 -1 4 C-4.85645121 4.22036864 -7.49223216 3.60355101 -11 2 C-11 1.34 -11 0.68 -11 0 C-3.375 -1.125 -3.375 -1.125 0 0 Z " fill="#F0BA56" transform="translate(150,444)"/>
<path d="M0 0 C1.134375 0.020625 2.26875 0.04125 3.4375 0.0625 C2.798125 0.35125 2.15875 0.64 1.5 0.9375 C-0.71456079 1.89073451 -0.71456079 1.89073451 -1.5625 4.0625 C-5.1925 4.0625 -8.8225 4.0625 -12.5625 4.0625 C-12.5625 3.4025 -12.5625 2.7425 -12.5625 2.0625 C-10.51171875 1.83463542 -8.4609375 1.60677083 -6.41015625 1.37890625 C-3.20046765 0.82925556 -4.00105232 0.0701939 0 0 Z " fill="#F4D288" transform="translate(428.5625,433.9375)"/>
<path d="M0 0 C2.64 0.33 5.28 0.66 8 1 C4.24532309 4.05936637 0.91886939 6 -4 6 C-4 5.34 -4 4.68 -4 4 C-3.34 4 -2.68 4 -2 4 C-1.34 2.68 -0.68 1.36 0 0 Z " fill="#494647" transform="translate(318,370)"/>
<path d="M0 0 C-0.804375 0.45375 -1.60875 0.9075 -2.4375 1.375 C-5.08856572 2.74725665 -5.08856572 2.74725665 -6 5 C-8.31 5 -10.62 5 -13 5 C-12.67 4.34 -12.34 3.68 -12 3 C-11.01 3 -10.02 3 -9 3 C-9 2.34 -9 1.68 -9 1 C-5.57367167 -0.61798838 -3.61944899 -1.34053666 0 0 Z " fill="#F0CF85" transform="translate(491,379)"/>
<path d="M0 0 C1.32 0 2.64 0 4 0 C4 0.66 4 1.32 4 2 C4.99 2 5.98 2 7 2 C7 2.66 7 3.32 7 4 C3.37 4 -0.26 4 -4 4 C-3.67 3.34 -3.34 2.68 -3 2 C-2.01 2 -1.02 2 0 2 C0 1.34 0 0.68 0 0 Z " fill="#F1C168" transform="translate(380,474)"/>
<path d="M0 0 C3.3 0 6.6 0 10 0 C9.67 0.99 9.34 1.98 9 3 C7.35 3.33 5.7 3.66 4 4 C4 3.34 4 2.68 4 2 C2.35 2 0.7 2 -1 2 C-0.67 1.34 -0.34 0.68 0 0 Z " fill="#EEC46E" transform="translate(508,408)"/>
<path d="M0 0 C2.04224637 0.11514149 4.08380159 0.24257326 6.125 0.375 C7.26195312 0.44460938 8.39890625 0.51421875 9.5703125 0.5859375 C12.95393616 0.99443876 15.81612441 1.80967569 19 3 C19 3.33 19 3.66 19 4 C16.03 4 13.06 4 10 4 C10 3.67 10 3.34 10 3 C6.7 2.34 3.4 1.68 0 1 C0 0.67 0 0.34 0 0 Z " fill="#ECAD49" transform="translate(253,444)"/>
<path d="M0 0 C-1.33302292 2.66604583 -2.18990481 2.99124788 -5 4 C-7.69159843 4.16468671 -10.29843606 4.09005213 -13 4 C-12 2 -12 2 -9.3125 0.875 C-6.0420565 0.01110926 -3.36293818 -0.16013991 0 0 Z " fill="#F0CB7F" transform="translate(455,428)"/>
<path d="M0 0 C1.65 0 3.3 0 5 0 C5 0.66 5 1.32 5 2 C6.65 2 8.3 2 10 2 C10 2.66 10 3.32 10 4 C7.03 4 4.06 4 1 4 C0.67 2.68 0.34 1.36 0 0 Z " fill="#EFC776" transform="translate(554,374)"/>
<path d="M0 0 C-1 2 -1 2 -3.125 3.125 C-6.52391089 4.15945114 -9.46640886 4.1385722 -13 4 C-13 3.34 -13 2.68 -13 2 C-8.46298506 0.54815522 -4.81938524 -0.23509196 0 0 Z " fill="#EECD84" transform="translate(469,424)"/>
<path d="M0 0 C0.66 0 1.32 0 2 0 C3.11658501 4.68965706 2.80619523 7.53763531 1 12 C0.34 12 -0.32 12 -1 12 C-1 12.66 -1 13.32 -1 14 C-1.66 13.67 -2.32 13.34 -3 13 C-2.34 11.35 -1.68 9.7 -1 8 C-0.34 8 0.32 8 1 8 C0.67 5.36 0.34 2.72 0 0 Z " fill="#F2D698" transform="translate(519,410)"/>
<path d="M0 0 C0.99 0 1.98 0 3 0 C3 0.66 3 1.32 3 2 C4.32 2 5.64 2 7 2 C7 2.66 7 3.32 7 4 C8.32 4 9.64 4 11 4 C11 4.66 11 5.32 11 6 C9.35 6 7.7 6 6 6 C6 5.34 6 4.68 6 4 C4.35 4 2.7 4 1 4 C0.67 2.68 0.34 1.36 0 0 Z " fill="#F2CB83" transform="translate(72,386)"/>
<path d="M0 0 C0.66 0.99 1.32 1.98 2 3 C-2.43076923 8.78461538 -2.43076923 8.78461538 -5.3125 9.875 C-5.869375 9.91625 -6.42625 9.9575 -7 10 C-5.33248852 6.05860922 -2.77289351 3.2107188 0 0 Z " fill="#4D4A4B" transform="translate(208,229)"/>
<path d="M0 0 C0.9075 0.103125 1.815 0.20625 2.75 0.3125 C2.75 0.9725 2.75 1.6325 2.75 2.3125 C1.43 2.3125 0.11 2.3125 -1.25 2.3125 C-1.25 2.9725 -1.25 3.6325 -1.25 4.3125 C-2.24 4.3125 -3.23 4.3125 -4.25 4.3125 C-4.25 4.9725 -4.25 5.6325 -4.25 6.3125 C-5.24 5.9825 -6.23 5.6525 -7.25 5.3125 C-4.05 0.38942308 -4.05 0.38942308 0 0 Z " fill="#F1D085" transform="translate(497.25,433.6875)"/>
<path d="M0 0 C1.32 0 2.64 0 4 0 C4 0.66 4 1.32 4 2 C5.65 2 7.3 2 9 2 C9.33 2.66 9.66 3.32 10 4 C6.7 4 3.4 4 0 4 C0 2.68 0 1.36 0 0 Z " fill="#F3C36F" transform="translate(133,414)"/>
<path d="M0 0 C1.65 0.33 3.3 0.66 5 1 C2.42215154 3.64752004 0.08351902 5.94432065 -3 8 C-3 7.01 -3 6.02 -3 5 C-2.34 5 -1.68 5 -1 5 C-0.67 3.35 -0.34 1.7 0 0 Z " fill="#474445" transform="translate(449,339)"/>
<path d="M0 0 C0.33 0 0.66 0 1 0 C1 1.98 1 3.96 1 6 C3.31 6 5.62 6 8 6 C7.67 6.66 7.34 7.32 7 8 C4.36 8 1.72 8 -1 8 C-0.67 5.36 -0.34 2.72 0 0 Z " fill="#EDD08E" transform="translate(525,456)"/>
<path d="M0 0 C1.65 0 3.3 0 5 0 C5 0.66 5 1.32 5 2 C1.91190305 3.76462683 0.76687864 4 -3 4 C-3 4.66 -3 5.32 -3 6 C-3.99 5.67 -4.98 5.34 -6 5 C-5.34 5 -4.68 5 -4 5 C-4 4.01 -4 3.02 -4 2 C-2.68 2 -1.36 2 0 2 C0 1.34 0 0.68 0 0 Z " fill="#F1D085" transform="translate(484,440)"/>
<path d="M0 0 C3.3 0 6.6 0 10 0 C9.67 0.99 9.34 1.98 9 3 C9.99 3.33 10.98 3.66 12 4 C7.91621717 3.25749403 3.98060777 2.17076699 0 1 C0 0.67 0 0.34 0 0 Z " fill="#F2CF82" transform="translate(207,470)"/>
<path d="M0 0 C0.33 0 0.66 0 1 0 C0.67 3.3 0.34 6.6 0 10 C-0.99 10 -1.98 10 -3 10 C-2.49287967 6.28111761 -1.88391785 3.26545761 0 0 Z " fill="#F0C36D" transform="translate(531,442)"/>
<path d="M0 0 C0.33 0 0.66 0 1 0 C2.28571429 8.57142857 2.28571429 8.57142857 1 12 C0.34 12 -0.32 12 -1 12 C-1.02698189 10.37509046 -1.04638757 8.75005367 -1.0625 7.125 C-1.07410156 6.22007812 -1.08570313 5.31515625 -1.09765625 4.3828125 C-1 2 -1 2 0 0 Z " fill="#F2B648" transform="translate(533,436)"/>
<path d="M0 0 C-1 1.5 -1 1.5 -3 3 C-5.71846235 3.27345479 -8.25677199 3.13491285 -11 3 C-10 1 -10 1 -7.1875 -0.1875 C-4.14038924 -0.96421451 -2.86250637 -1.10096399 0 0 Z " fill="#F1C474" transform="translate(480,421)"/>
<path d="M0 0 C1.423125 0.2784375 1.423125 0.2784375 2.875 0.5625 C5.89868793 1.28686632 5.89868793 1.28686632 8 0 C8.66 0.66 9.32 1.32 10 2 C9.01 2.99 8.02 3.98 7 5 C4.0625 4.1875 4.0625 4.1875 1 3 C0.67 2.01 0.34 1.02 0 0 Z " fill="#3F3D3E" transform="translate(221,369)"/>
<path d="M0 0 C2.31 0 4.62 0 7 0 C7 0.66 7 1.32 7 2 C7.99 2.33 8.98 2.66 10 3 C8.02 3.33 6.04 3.66 4 4 C4 3.34 4 2.68 4 2 C2.68 1.67 1.36 1.34 0 1 C0 0.67 0 0.34 0 0 Z " fill="#EEA728" transform="translate(406,466)"/>
<path d="M0 0 C0.6875 1.8125 0.6875 1.8125 1 4 C-0.4375 5.75 -0.4375 5.75 -2 7 C-2.33 6.34 -2.66 5.68 -3 5 C-5.01669827 3.86649466 -5.01669827 3.86649466 -7 3 C-7 2.67 -7 2.34 -7 2 C-4.69 1.34 -2.38 0.68 0 0 Z " fill="#F0B047" transform="translate(543,392)"/>
<path d="M0 0 C1.65 0 3.3 0 5 0 C5.99 1.98 6.98 3.96 8 6 C7.01 6 6.02 6 5 6 C5 5.34 5 4.68 5 4 C4.34 4 3.68 4 3 4 C3 3.34 3 2.68 3 2 C2.01 2 1.02 2 0 2 C0 1.34 0 0.68 0 0 Z " fill="#F5D289" transform="translate(92,416)"/>
<path d="M0 0 C1.65 0 3.3 0 5 0 C5 1.32 5 2.64 5 4 C3.35 4 1.7 4 0 4 C0 2.68 0 1.36 0 0 Z " fill="#F1B64D" transform="translate(472,444)"/>
<path d="M0 0 C1.98 0 3.96 0 6 0 C6 1.32 6 2.64 6 4 C6.33 4.66 6.66 5.32 7 6 C4.50638429 4.79618552 2.31856917 3.54571278 0 2 C0 1.34 0 0.68 0 0 Z " fill="#F6CF7A" transform="translate(66,396)"/>
<path d="M0 0 C0.33 0.99 0.66 1.98 1 3 C-1.475 4.485 -1.475 4.485 -4 6 C-4.33 4.35 -4.66 2.7 -5 1 C-2 0 -2 0 0 0 Z " fill="#3A3839" transform="translate(418,368)"/>
<path d="M0 0 C1.32 0 2.64 0 4 0 C4 0.66 4 1.32 4 2 C3.34 2 2.68 2 2 2 C2 2.66 2 3.32 2 4 C2.66 4 3.32 4 4 4 C4 4.66 4 5.32 4 6 C1.525 5.01 1.525 5.01 -1 4 C-0.67 2.68 -0.34 1.36 0 0 Z " fill="#EEA936" transform="translate(162,450)"/>
<path d="M0 0 C1.65 0 3.3 0 5 0 C5.33 0.66 5.66 1.32 6 2 C5.34 2 4.68 2 4 2 C4 2.66 4 3.32 4 4 C2.68 4 1.36 4 0 4 C0 2.68 0 1.36 0 0 Z " fill="#F5B64A" transform="translate(548,436)"/>
<path d="M0 0 C3.02419525 0.58803797 6.01758453 1.22678118 9 2 C9 2.66 9 3.32 9 4 C6.1875 4.25 6.1875 4.25 3 4 C1.125 2 1.125 2 0 0 Z " fill="#F3D089" transform="translate(108,404)"/>
<path d="M0 0 C2.76276177 0.52268466 5.3260876 1.10869587 8 2 C8 2.66 8 3.32 8 4 C6.35 4 4.7 4 3 4 C3 3.34 3 2.68 3 2 C2.01 1.67 1.02 1.34 0 1 C0 0.67 0 0.34 0 0 Z " fill="#EFD489" transform="translate(95,398)"/>
<path d="M0 0 C0.66 0 1.32 0 2 0 C2 0.66 2 1.32 2 2 C3.65 2 5.3 2 7 2 C6.67 2.66 6.34 3.32 6 4 C4.02 4 2.04 4 0 4 C0 2.68 0 1.36 0 0 Z " fill="#F0C36E" transform="translate(432,460)"/>
<path d="M0 0 C1.98 0 3.96 0 6 0 C6 0.99 6 1.98 6 3 C6.66 3.33 7.32 3.66 8 4 C6.68 4 5.36 4 4 4 C4 3.34 4 2.68 4 2 C2.68 1.67 1.36 1.34 0 1 C0 0.67 0 0.34 0 0 Z " fill="#F2D48D" transform="translate(171,458)"/>
<path d="M0 0 C1.98 0 3.96 0 6 0 C6 1.32 6 2.64 6 4 C5.01 4 4.02 4 3 4 C3 3.34 3 2.68 3 2 C2.01 1.67 1.02 1.34 0 1 C0 0.67 0 0.34 0 0 Z " fill="#F3C778" transform="translate(86,412)"/>
<path d="M0 0 C1.98 0 3.96 0 6 0 C6 1.32 6 2.64 6 4 C5.01 4 4.02 4 3 4 C3 3.34 3 2.68 3 2 C2.01 2 1.02 2 0 2 C0 1.34 0 0.68 0 0 Z " fill="#F4C870" transform="translate(73,402)"/>
<path d="M0 0 C2.375 0.1875 2.375 0.1875 5 1 C6.3125 3.5625 6.3125 3.5625 7 6 C4.50638429 4.79618552 2.31856917 3.54571278 0 2 C0 1.34 0 0.68 0 0 Z " fill="#F5D489" transform="translate(59,390)"/>
</svg>
