<svg width="16" height="12" viewBox="0 0 16 12" fill="none" xmlns="http://www.w3.org/2000/svg">
<g clip-path="url(#clip0_1_262)">
<g clip-path="url(#clip1_1_262)">
<path fill-rule="evenodd" clip-rule="evenodd" d="M5.09879 11.5056L5.55673 11.999L6.47046 11.0111L6.01359 10.5178L5.09879 11.5056ZM0.91481 5.99957L0.45794 5.50505L0 5.99957L0.45794 6.49293L0.91481 5.99957ZM6.0136 1.48023L6.47047 0.986873L5.55674 -0.00100708L5.0988 0.493513L6.0136 1.48023ZM6.0136 10.5178L1.37168 5.50505L0.45795 6.49293L5.0988 11.5056L6.0136 10.5178ZM1.37167 6.49293L6.01359 1.48023L5.09878 0.493513L0.45793 5.50505L1.37167 6.49293ZM0.91481 6.69772H16V5.30142H0.91481V6.69772Z" fill="#0A0C0B"/>
</g>
</g>
<defs>
<clipPath id="clip0_1_262">
<rect width="16" height="12" fill="white" transform="translate(0 -0.00100708)"/>
</clipPath>
<clipPath id="clip1_1_262">
<rect width="16" height="12" fill="white" transform="translate(0 -0.00100708)"/>
</clipPath>
</defs>
</svg>
