<svg width="24" height="24" viewBox="0 0 24 24" fill="none" xmlns="http://www.w3.org/2000/svg">
<g id="Group 10" clip-path="url(#clip0_1_159)">
<path id="Path 36" d="M23.5724 11.0488L13.9519 1.36496C13.9396 1.3525 13.9268 1.3404 13.9138 1.32867C12.8633 0.385461 11.2759 0.382091 10.2214 1.32087C10.2083 1.33255 10.1956 1.3446 10.1831 1.35697L0.475056 11.0459C0.114136 11.4062 0.113536 11.9908 0.473766 12.3517C0.834046 12.7127 1.41864 12.7132 1.77951 12.353L2.51225 11.6217V19.5938C2.51225 21.6302 4.16904 23.287 6.20549 23.287H9.5294C10.0393 23.287 10.4527 22.8736 10.4527 22.3637V14.8387H13.6843V22.3637C13.6843 22.8736 14.0977 23.287 14.6076 23.287H17.8392C19.8756 23.287 21.5324 21.6302 21.5324 19.5938C21.5324 19.0838 21.119 18.6704 20.6091 18.6704C20.0992 18.6704 19.6858 19.0838 19.6858 19.5938C19.6858 20.612 18.8574 21.4404 17.8392 21.4404H15.5309V13.9154C15.5309 13.4055 15.1175 12.9921 14.6076 12.9921H9.5294C9.01946 12.9921 8.60609 13.4055 8.60609 13.9154V21.4404H6.20549C5.18726 21.4404 4.35887 20.612 4.35887 19.5938V9.80667C4.35887 9.79744 4.35873 9.78825 4.35845 9.77911L11.4658 2.68574C11.8118 2.39199 12.3191 2.3931 12.6637 2.68828L19.6858 9.75667V14.9772C19.6858 15.4871 20.0992 15.9005 20.6091 15.9005C21.119 15.9005 21.5324 15.4871 21.5324 14.9772V11.6154L22.2624 12.3503C22.4428 12.5319 22.68 12.6228 22.9174 12.6228C23.1527 12.6228 23.388 12.5334 23.5681 12.3545C23.9299 11.9951 23.9318 11.4105 23.5724 11.0488H23.5724Z" fill="#000203"/>
</g>
<defs>
<clipPath id="clip0_1_159">
<rect width="23.6367" height="22.668" fill="white" transform="translate(0.203979 0.619019)"/>
</clipPath>
</defs>
</svg>
