<svg width="17" height="12" viewBox="0 0 17 12" fill="none" xmlns="http://www.w3.org/2000/svg">
<g clip-path="url(#clip0_1_413)">
<path d="M16.1542 5.155H4.73667C4.37399 5.155 4.07999 5.44901 4.07999 5.81168C4.07999 6.17437 4.37399 6.46836 4.73667 6.46836H16.1542C16.5169 6.46836 16.8109 6.17437 16.8109 5.81168C16.8109 5.44901 16.5169 5.155 16.1542 5.155Z" fill="black"/>
<path d="M16.1542 0.230003H4.73667C4.37399 0.230003 4.07999 0.523993 4.07999 0.886683C4.07999 1.24936 4.37399 1.54336 4.73667 1.54336H16.1542C16.5169 1.54336 16.8109 1.24936 16.8109 0.886683C16.8109 0.523993 16.5169 0.230003 16.1542 0.230003Z" fill="black"/>
<path d="M16.1542 10.08H4.73667C4.37399 10.08 4.07999 10.374 4.07999 10.7367C4.07999 11.0994 4.37399 11.3934 4.73667 11.3934H16.1542C16.5169 11.3934 16.8109 11.0994 16.8109 10.7367C16.8109 10.374 16.5169 10.08 16.1542 10.08Z" fill="black"/>
<circle cx="1" cy="1" r="1" fill="black"/>
<circle cx="1" cy="6" r="1" fill="black"/>
<circle cx="1" cy="11" r="1" fill="black"/>
</g>
<defs>
<clipPath id="clip0_1_413">
<rect width="16.8109" height="12" fill="white"/>
</clipPath>
</defs>
</svg>
