<svg width="17" height="20" viewBox="0 0 17 20" fill="none" xmlns="http://www.w3.org/2000/svg">
<g clip-path="url(#clip0_1_408)">
<path d="M8.17576 18.1508H3.40009C2.10223 18.1508 1.04917 17.0939 1.04917 15.7999V4.29011C1.04917 2.99225 2.10611 1.93919 3.40009 1.93919H8.25348C8.54492 1.93919 8.77807 1.70604 8.77807 1.4146C8.77807 1.12316 8.54492 0.890015 8.25348 0.890015H3.40009C1.52324 0.890015 0 2.41714 0 4.2901V15.7999C0 17.6767 1.52713 19.2 3.40009 19.2H8.17576C8.4672 19.2 8.70035 18.9668 8.70035 18.6754C8.70035 18.384 8.46331 18.1508 8.17576 18.1508V18.1508Z" fill="black"/>
<path d="M16.8178 9.6755L13.4837 6.34147C13.2778 6.13552 12.9475 6.13552 12.7415 6.34147C12.5356 6.54743 12.5356 6.87772 12.7415 7.08367L15.1818 9.52395H4.53859C4.24715 9.52395 4.01401 9.7571 4.01401 10.0486C4.01401 10.34 4.24716 10.5731 4.53859 10.5731H15.1818L12.7415 13.0134C12.5356 13.2194 12.5356 13.5497 12.7415 13.7556C12.8426 13.8567 12.9786 13.9111 13.1107 13.9111C13.2428 13.9111 13.3788 13.8605 13.4799 13.7556L16.8139 10.4216C17.0237 10.2118 17.0237 9.87757 16.8178 9.6755Z" fill="black"/>
</g>
<defs>
<clipPath id="clip0_1_408">
<rect width="16.9718" height="18.31" fill="white" transform="translate(0 0.890015)"/>
</clipPath>
</defs>
</svg>
