<svg width="19" height="19" viewBox="0 0 19 19" fill="none" xmlns="http://www.w3.org/2000/svg">
<path d="M18.9662 17.1499L14.1812 12.3649L13.1449 13.4012L17.9299 18.1862L18.9662 17.1499ZM8.87704 14.5423C5.31743 14.5423 2.43178 11.6566 2.43178 8.09704H0.966233C0.966233 12.466 4.50804 16.0078 8.87704 16.0078V14.5423ZM2.43178 8.09704C2.43178 4.53744 5.31743 1.65178 8.87704 1.65178V0.186234C4.50804 0.186234 0.966233 3.72804 0.966233 8.09704H2.43178ZM8.87704 1.65178C12.4366 1.65178 15.3223 4.53744 15.3223 8.09704H16.7878C16.7878 3.72804 13.246 0.186234 8.87704 0.186234V1.65178ZM15.3223 8.09704C15.3223 11.6566 12.4366 14.5423 8.87704 14.5423V16.0078C13.246 16.0078 16.7878 12.466 16.7878 8.09704H15.3223Z" fill="#0A0C0B"/>
</svg>
