<svg width="17" height="20" viewBox="0 0 17 20" fill="none" xmlns="http://www.w3.org/2000/svg">
<path fill-rule="evenodd" clip-rule="evenodd" d="M2.22178 8.90902L1.46547 8.82335L2.22178 8.90902ZM1.25574 17.8101L2.01205 17.8958L1.25574 17.8101ZM15.8517 17.8101L15.0965 17.8958L15.8517 17.8101ZM14.8857 8.90902L15.642 8.82335L14.8857 8.90902ZM1.46546 8.82334L0.499423 17.7245L2.01205 17.8958L2.97809 8.99468L1.46546 8.82334ZM2.49018 20.0009H14.6184V18.4432H2.49018V20.0009ZM16.6081 17.7245L15.642 8.82335L14.1305 8.9947L15.0965 17.8958L16.6081 17.7245ZM13.6523 6.99862H3.45622V8.55631H13.6523V6.99862ZM15.642 8.82334C15.529 7.78413 14.6727 6.99861 13.6523 6.99861V8.5563C13.8968 8.5563 14.1033 8.74545 14.1305 8.99468L15.642 8.82334ZM14.6184 20.0009C15.8115 20.0009 16.7395 18.9384 16.6081 17.7245L15.0965 17.8958C15.128 18.1884 14.9053 18.4432 14.6184 18.4432V20.0009ZM0.499423 17.7245C0.367933 18.9384 1.29703 20.0009 2.49018 20.0009V18.4432C2.2033 18.4432 1.98054 18.1884 2.01205 17.8958L0.499423 17.7245ZM2.97809 8.99469C3.00526 8.74546 3.21063 8.55631 3.45622 8.55631V6.99862C2.43585 6.99862 1.57847 7.78414 1.46546 8.82335L2.97809 8.99469ZM5.58933 5.8704V5.23508H4.06801V5.8704H5.58933ZM11.5192 5.23508V5.8704H13.0406V5.23508H11.5192ZM8.55374 2.19869C10.1913 2.19869 11.5192 3.55833 11.5192 5.23508H13.0406C13.0406 2.69715 11.0313 0.640991 8.55374 0.640991V2.19869ZM5.58933 5.23508C5.58933 3.55833 6.91614 2.19869 8.55374 2.19869V0.640991C6.07616 0.640991 4.06801 2.69715 4.06801 5.23508H5.58933Z" fill="#0A0C0B"/>
</svg>
